<?xml version="1.0" encoding="UTF-8" standalone="no"?>
<!-- Generator: Adobe Illustrator 26.1.0, SVG Export Plug-In . SVG Version: 6.00 Build 0)  -->

<svg
   xmlns:dc="http://purl.org/dc/elements/1.1/"
   xmlns:cc="http://creativecommons.org/ns#"
   xmlns:rdf="http://www.w3.org/1999/02/22-rdf-syntax-ns#"
   xmlns:svg="http://www.w3.org/2000/svg"
   xmlns="http://www.w3.org/2000/svg"
   xmlns:sodipodi="http://sodipodi.sourceforge.net/DTD/sodipodi-0.dtd"
   xmlns:inkscape="http://www.inkscape.org/namespaces/inkscape"
   version="1.1"
   id="svg2"
   x="0px"
   y="0px"
   viewBox="0 0 255.1 119.1"
   style="enable-background:new 0 0 255.1 119.1;"
   xml:space="preserve"
   sodipodi:docname="hhnk_logo.svg"
   inkscape:version="0.92.3 (2405546, 2018-03-11)"
   inkscape:export-filename="D:\repositories\hhnk-threedi-tools\docs\icons\hhnk_logo_white.png"
   inkscape:export-xdpi="403.01999"
   inkscape:export-ydpi="403.01999"><metadata
   id="metadata55"><rdf:RDF><cc:Work
       rdf:about=""><dc:format>image/svg+xml</dc:format><dc:type
         rdf:resource="http://purl.org/dc/dcmitype/StillImage" /></cc:Work></rdf:RDF></metadata><defs
   id="defs53">
	
</defs><sodipodi:namedview
   pagecolor="#ffffff"
   bordercolor="#666666"
   borderopacity="1"
   objecttolerance="10"
   gridtolerance="10"
   guidetolerance="10"
   inkscape:pageopacity="0"
   inkscape:pageshadow="2"
   inkscape:window-width="1920"
   inkscape:window-height="1001"
   id="namedview51"
   showgrid="false"
   inkscape:zoom="1.3288906"
   inkscape:cx="1.8812655"
   inkscape:cy="59.549999"
   inkscape:window-x="-9"
   inkscape:window-y="-9"
   inkscape:window-maximized="1"
   inkscape:current-layer="g12" />
<style
   type="text/css"
   id="style2">
	.st0{fill:#007DB8;}
	.st1{fill:#FFFFFF;}
</style>
<g
   transform="matrix(0.13333333,0,0,-0.13333333,0,119.05333)"
   id="g12">
		
		
		
		
		
		
		
		
		
		
		
		
		
		
		
		
		
		
		
		
		
		
		
		
		
		
		
		
		
		
		
		
		
		
		
		
		
		
		
		
		
		
		
		<path
   style="fill:#007db8;stroke-width:0.67403269"
   inkscape:connector-curvature="0"
   d="M 869.29593,0 V 892.9 H 0 V 0 h 869.29593"
   class="st0"
   id="path14" /><path
   style="fill:#ffffff"
   inkscape:connector-curvature="0"
   d="m 438.3,576 c 20.7,17 31.9,37.5 25.1,45.7 -6.8,8.3 -29,1.2 -49.7,-15.8 -20.6,-17 -31.9,-37.5 -25.1,-45.7 6.8,-8.3 29,-1.2 49.7,15.8"
   class="st1"
   id="path96" /><g
   id="g4612"><path
     id="path98"
     class="st1"
     d="m 460.3,466 c -23.5,-15.5 -27.5,-20.2 -38.5,-16.4 -11.6,4 -6.2,22.1 -9.7,43.5 -1.7,10.5 -7.1,34.2 -20.5,33.1 -14,-1.2 -15.2,-36.1 -17.1,-49.2 -5,-35.3 -27.2,-61.5 -48.4,-75.7 C 304.9,387.2 261.5,365 228.3,322.6 195,280.2 203.1,252 223.2,233.8 c 20.2,-18.2 13.1,-33.3 22.2,-56.5 8.8,-22.5 20,-16.6 41.4,-11.1 31.3,8.1 37.3,-12.1 40.4,-29.3 5.1,-28.9 61.5,-34.1 61.5,23.2 0,85.9 17.4,118.4 46.4,124.1 38.5,7.6 67,4.7 77.9,13.4 11.3,9.1 19.7,26.2 -10.2,47.2 -42.1,29.6 -34.4,44.8 -14.4,98.2 8.2,21.9 -11.8,33.8 -28.1,23"
     inkscape:connector-curvature="0"
     style="fill:#ffffff" /><path
     id="path100"
     class="st1"
     d="M 261.6,475.8 C 262,504.6 238.7,515 223,496 c -5.4,-6.5 -19.4,-6.2 -26.4,-2.6 -12.6,6.5 -29.6,34.5 -37,47.6 -1.9,3.4 -0.8,7.5 2.1,9.9 34.4,27.9 77.8,59.2 77.8,59.2 l 5.2,15.2 c 7.6,6.9 30.4,18.7 49.1,27.3 -34.7,7.3 -40,36 -20.2,59.6 12.4,14.8 33.5,40.9 42.9,28.9 8.8,-11.3 -15.5,-28.3 54.4,11.5 30.2,17.2 35,-3.4 31.2,-12.6 -9.4,-22.4 66.6,17.5 98.5,-4.5 28.7,-19.8 -44.5,-52.6 12,-50.1 84.3,3.9 102.6,-13.7 92.6,-49.8 -19.8,-71.4 96.2,-34.8 95.5,-116 -0.2,-30.9 -66.8,-45.5 -55.6,-79 6,-18.1 13.3,-34.1 22.4,-73.1 9.1,-39 -27.2,-99.9 -73.1,-91.5 -104,19.1 87.1,147.8 6.9,232.6 -12.7,13.4 -42.2,40.5 -38.9,89 1.2,18 -7.8,26.2 -21.6,29.2 -26.3,5.9 -73.9,10.9 -72.1,38 2.9,44.2 -74.6,-21.2 -90.7,38 -8.6,31.8 -34,22.5 -58.9,7.2 -18.5,-11.3 -30,-25.5 -28.3,-35.5 2.3,-13.2 21.5,-15 30,-15.1 40.4,-0.4 49.3,-35.8 41.3,-64.6 -22.5,-81.5 -63.9,-41.2 -80.3,-145.9 -13.6,-86.7 -116.4,-42.2 -100.3,-9.2 14.4,29.5 34.7,12.1 46.8,3 12,-8.9 32.8,-1.5 33.3,33.1 z m 31.5,144.1 c -0.8,0.7 -11.6,-1.7 -19.7,-7 -8.1,-5.3 -13.7,-13.4 -13.7,-13.4 11.5,0.5 16.3,-5 20.9,-3.6 6.5,2 14.1,22.5 12.5,24"
     inkscape:connector-curvature="0"
     style="fill:#ffffff" /></g>
	</g>
</svg>